<svg id="sumer5020" xmlns="http://www.w3.org/2000/svg" xmlns:xlink="http://www.w3.org/1999/xlink" viewBox="0 0 300 300" style="enable-background:new 0 0 300 300"><style>.st0{fill:url(#top_1_);stroke:url(#top_2_);stroke-width:.25;stroke-miterlimit:10}.st1{fill:url(#bottom_1_);stroke:url(#bottom_2_);stroke-width:.25;stroke-miterlimit:10}</style><linearGradient id="top_1_" gradientUnits="userSpaceOnUse" x1="-.3868" y1="256.2748" x2="-165.6715" y2="241.8143" gradientTransform="matrix(-0.7523 -0.6588 -0.6588 0.7523 234.4764 -134.0476)"><stop offset="0" style="stop-color:#F3E1F4"/><stop offset=".06518227" style="stop-color:#E8D3EA"/><stop offset=".1279" style="stop-color:#DEC6E0"/><stop offset=".1939" style="stop-color:#D4BAD6"/><stop offset=".2863" style="stop-color:#CAB0CC"/><stop offset=".3721" style="stop-color:#BFA4C1"/><stop offset=".4315" style="stop-color:#B59AB7"/><stop offset=".4843" style="stop-color:#AD91AF"/><stop offset=".6691" style="stop-color:#A388A5"/><stop offset=".7484" style="stop-color:#997E9B"/><stop offset=".8606" style="stop-color:#8F7491"/><stop offset="1" style="stop-color:#544156"/></linearGradient><linearGradient id="top_2_" gradientUnits="userSpaceOnUse" x1="30.1131" y1="108.3286" x2="235.1507" y2="108.3286"><stop offset="0" style="stop-color:#F3E1F4"/><stop offset=".06518227" style="stop-color:#E8D3EA"/><stop offset=".1279" style="stop-color:#DEC6E0"/><stop offset=".1939" style="stop-color:#D4BAD6"/><stop offset=".2863" style="stop-color:#CAB0CC"/><stop offset=".3721" style="stop-color:#BFA4C1"/><stop offset=".4315" style="stop-color:#B59AB7"/><stop offset=".4843" style="stop-color:#AD91AF"/><stop offset=".6691" style="stop-color:#A388A5"/><stop offset=".7484" style="stop-color:#997E9B"/><stop offset=".8606" style="stop-color:#8F7491"/><stop offset="1" style="stop-color:#544156"/></linearGradient><path id="top" class="st0" d="M84.8 41.2C73.5 54.1 62.3 67 51 79.9c-2.2 2.5-4 5.4-6.2 8-2.9 3.6-4.9 7.6-6.8 11.7-1.5 3.2-2.8 6.4-3.9 9.8-.5 1.6-1 3.2-1.4 4.8-1.5 6.4-2.4 12.9-2.6 19.5.0.4.0.8.0 1.2.0 1.9.2 3.7.5 5.6.1.4.2.9.2 1.3.1 3.6.9 7 1.7 10.5 1.6 7.7 4.7 14.9 8.5 21.8.7 1.3 1.5 2.6 2.4 3.9 2 3.2 4.3 6.2 6.9 9 2.3 2.6 4.7 5.1 7.3 7.4.6.6 1.3 1.1 2 1.7 1.8 1.4 3.6 2.8 5.5 4.1 1.8 1.3 3.7 2.4 5.7 3.5 1.2.6 2.4 1.3 3.5 2 3.6 2 7.6 3.2 11.6 4.5 3 1 6 1.8 9.1 2.5 2.9.6 5.9 1.1 8.9 1.3 4.3.4 8.6.4 12.9.1.3.0.6-.1.9-.1 5.1-.5 10.3-1.4 15.2-2.8 4.6-1.2 9.1-2.8 13.4-4.9 3.4-1.7 6.8-3.7 10-5.9.2-.1.3-.2.5-.3 4.2-2.8 7.8-6.2 11.4-9.6 1.5-1.4 2.8-2.8 4.2-4.3l37.3-42.6c.3-.3.5-.6.8-.9l.1-.1c.5-.6.4-1.1-.3-1.7-1.2-1.1-2.6-1.8-3.9-2.6-3.8-2.1-7.8-3.5-12.1-3.9-2.9-.2-5.7-.8-8.6-.5-1.4.1-2.4.6-3.3 1.7-2.9 3.3-5.8 6.7-8.7 10v.1c-7.6 8.7-15.2 17.5-23 26.1-2.6 2.9-5.6 5.3-8.8 7.5-3.5 2.4-7.3 4.1-11 6-1.1.6-2.3.8-3.5 1.1-3.3 1-6.6 1.7-10 2.1-.4.1-.8.1-1.2.1-5.6.5-11.1.1-16.7-.9-2.6-.5-5-1.5-7.5-2.4-4.6-1.5-8.6-4.1-12.6-6.7-1.6-1.1-3.2-2.3-4.6-3.5-1-.8-1.9-1.7-2.8-2.7-3.1-3.2-6-6.7-8.2-10.7-.7-1.3-1.4-2.7-2-4-1.1-2.3-2-4.7-2.8-7.1-1.1-3.4-1.8-6.9-2.3-10.4-.7-4.8-.6-9.7.2-14.5.0-.2.1-.4.1-.7.6-3.7 1.7-7.3 3-10.8 1.5-4.2 4.1-7.7 6.4-11.4 1.5-2.3 3.3-4.3 5.1-6.3 7-8 14-16 21-24 7.6-8.7 15.3-17.5 22.9-26.2l.5-.6c3.1-3.6 6.8-6.5 10.8-9 5.3-3.4 11.1-5.3 17.1-7.2 3.3-1.1 6.7-1.4 10.1-1.5 4.4-.1 8.7.1 13.1 1.1 2.2.5 4.3 1 6.5 1.7 1 .3 1.9.6 2.8 1 4.4 1.8 8.6 4 12.4 7.1 1.1.9 2.3 1.6 3.3 2.5.4.3.7.6 1 1 2 2.4 4.4 4.3 6.4 6.8 2.5 3 4.4 6.4 6.3 9.7.1.2.2.4.3.6.6 1 1.1 2.1 1.4 3.3 4.3.6 8.5 1.7 12.8 2.5 5.1.9 10.1 2.6 15 4.8-.9-4.5-2-8.9-3.5-13.2-.1-.3-.2-.6-.3-.9-1.6-4.4-3.5-8.6-5.7-12.7-2.8-5.1-6.3-9.7-10-14.2-.6-.8-1.3-1.5-1.9-2.2-2.3-2.4-4.9-4.4-7.4-6.6-2.5-2.2-5.3-3.9-8-5.7-2.6-1.6-5.3-3-8-4.3-.7-.3-1.3-.6-2-.9-2.6-1.3-5.4-2.1-8.1-3-4.1-1.3-8.4-2.2-12.6-2.9-3-.5-6.1-.8-9.3-.8-3.6.0-7.2.3-10.9.5-.2.0-.4.0-.7.1-3.7.3-7.2 1.2-10.8 2-4.2.9-8.1 2.5-12.1 3.8-2.6.9-5.1 2.3-7.5 3.7-3 1.8-6 3.7-9 5.7-1.6 1.1-3.1 2.3-4.5 3.7-2.6 2.5-5 5.3-7.7 7.7-.6.5-1.1 1.1-1.6 1.7L84.8 41.2z"/><linearGradient id="bottom_1_" gradientUnits="userSpaceOnUse" x1="-250.0157" y1="329.5849" x2="-78.1953" y2="249.4638" gradientTransform="matrix(-0.7523 -0.6588 -0.6588 0.7523 234.4764 -134.0476)"><stop offset="0" style="stop-color:#F3E1F4"/><stop offset=".06518227" style="stop-color:#E8D3EA"/><stop offset=".1279" style="stop-color:#DEC6E0"/><stop offset=".1939" style="stop-color:#D4BAD6"/><stop offset=".2863" style="stop-color:#CAB0CC"/><stop offset=".3721" style="stop-color:#BFA4C1"/><stop offset=".4315" style="stop-color:#B59AB7"/><stop offset=".4843" style="stop-color:#AD91AF"/><stop offset=".6691" style="stop-color:#A388A5"/><stop offset=".7484" style="stop-color:#997E9B"/><stop offset=".8606" style="stop-color:#8F7491"/><stop offset="1" style="stop-color:#544156"/></linearGradient><linearGradient id="bottom_2_" gradientUnits="userSpaceOnUse" x1="65.3317" y1="191.8229" x2="269.8869" y2="191.8229"><stop offset="0" style="stop-color:#F3E1F4"/><stop offset=".06518227" style="stop-color:#E8D3EA"/><stop offset=".1279" style="stop-color:#DEC6E0"/><stop offset=".1939" style="stop-color:#D4BAD6"/><stop offset=".2863" style="stop-color:#CAB0CC"/><stop offset=".3721" style="stop-color:#BFA4C1"/><stop offset=".4315" style="stop-color:#B59AB7"/><stop offset=".4843" style="stop-color:#AD91AF"/><stop offset=".6691" style="stop-color:#A388A5"/><stop offset=".7484" style="stop-color:#997E9B"/><stop offset=".8606" style="stop-color:#8F7491"/><stop offset="1" style="stop-color:#544156"/></linearGradient><path id="bottom" class="st1" d="M114.6 129.4c-2.4 2.8-4.9 5.5-7.3 8.3-5.5 6.3-11 12.6-16.6 19-.3.3-.5.6-.8.9-.7.7-.5 1.2.2 1.8 1.2 1 2.5 1.8 3.9 2.6 3.7 2.1 7.7 3.5 11.9 3.8 2.8.2 5.6.8 8.5.5 1.4-.1 2.4-.6 3.3-1.7 2.9-3.3 5.8-6.7 8.7-10 6.8-7.8 13.7-15.6 20.5-23.4 2.9-3.2 6.1-6.1 9.6-8.7 2.9-2.2 6-3.9 9.3-5.6 5.6-2.9 11.5-4.5 17.7-5.2 1.7-.2 3.4-.3 5.1-.3 3.2.0 6.3.3 9.5.8 5.4.7 10.5 2.7 15.4 5 3.5 1.6 6.8 3.6 9.9 6 .8.7 1.6 1.3 2.4 2 1.5 1.4 3 2.8 4.4 4.3 2.1 2.1 3.8 4.8 5.5 7.3 1.4 2 2.5 4.1 3.6 6.3 1.4 3 2.6 6.2 3.5 9.4 1.9 6.4 1.9 13 1.4 19.6-.1 1-.2 1.9-.2 2.9.0.2.0.3.0.5-.1 1.7-.6 3.4-1.2 5-1 2.7-1.6 5.4-2.8 8-2.3 4.8-4.8 9.4-8.4 13.4-1.5 1.6-2.9 3.3-4.4 4.9l-1 1.2c-1.3 1.5-2.6 3-3.9 4.5-4.3 5-8.7 9.9-13 14.9-5.6 6.4-11.2 12.8-16.8 19.2-2.4 2.8-4.9 5.5-7.3 8.3-.1.1-.1.1-.2.2-2.6 2.9-5.7 5.3-8.8 7.7-3 2.3-6.3 3.9-9.7 5.5-2.1 1-4.5 1.8-6.8 2.4-3.4.9-6.7 1.7-10.3 1.9-3.1.2-6.2.2-9.3.0-4.1-.3-8.1-1.1-12-2.4-.5-.2-1-.3-1.5-.5-3.2-1.2-6.3-2.7-9.2-4.5-2.1-1.3-4.2-2.5-6.1-4.1-.8-.7-1.6-1.4-2.4-2.1-2-1.7-4.1-3.5-5.8-5.6-2.9-3.6-5.7-7.2-7.7-11.3-.5-.9-.9-1.9-1.2-2.8.0-.1-.1-.1-.1-.2-3.2-.6-6.4-1.4-9.6-2-6.4-1.2-12.7-3.5-18.8-6.6.8 4.3 1.8 8.5 3.1 12.6.4 1.1.8 2.2 1.2 3.3 1.9 4.9 4.3 9.6 7 14.1s5.8 8.6 9.3 12.4c.6.6 1.2 1.3 1.8 1.9 1.8 1.9 3.6 3.7 5.6 5.2 5.3 4.1 10.8 7.7 16.9 10.5.1.1.3.1.4.2 6 2.8 12.3 4.8 18.8 6 3.9.7 7.8 1.1 11.7 1.2 4.2.1 8.4.0 12.5-.4 2.4-.2 4.8-.6 7.2-1 5.1-1 10-2.5 14.8-4.4 6.6-2.6 12.6-6.2 18.2-10.6 3.9-3.1 7.5-6.5 11-10.1 2.4-2.4 4.6-4.9 6.8-7.4 1-1.2 2-2.3 3.1-3.5.4-.4.8-.8 1.1-1.3.3-.4.7-.7 1-1.1.1-.1.1-.1.2-.2l6.8-7.8c-.1.1-.2.2-.3.3l.5-.6s0 .1-.1.1c-.1.1-.1.2-.2.3l21.5-24.6c.4-.5.8-1 1.2-1.5 2.6-3.1 5-6.4 7.5-9.6 2.3-3 4.4-6.2 6.2-9.6 2.3-4.3 4.2-8.8 5.6-13.5.3-.8.5-1.7.7-2.5 1.2-4.5 2-9.1 2.5-13.7.3-3.2.4-6.4.3-9.6-.1-3.2-.3-6.4-.7-9.6-.8-6.3-2.6-12.5-4.9-18.5-1.1-2.8-2.1-5.7-3.9-8.2-1-1.4-1.6-3.1-2.5-4.6-.3-.6-.7-1.2-1-1.7-2.3-3.6-5-6.8-7.7-10-2-2.4-4.1-4.6-6.4-6.6-.4-.3-.7-.6-1.1-.9-1-.8-2.1-1.6-3.1-2.4-3-2.3-6.1-4.4-9.5-6.2-2.3-1.2-4.6-2.6-7.1-3.6-1.6-.6-3.2-1.3-4.9-1.8-2.2-.6-4.2-1.6-6.4-2.1-2-.4-4-.8-6.1-1.2-2.1-.4-4.1-.7-6.2-1-4.2-.5-8.3-.6-12.5-.4-1.2.0-2.4.1-3.6.2-3.3.3-6.5.9-9.7 1.6-4.9 1-9.6 2.7-14.2 4.4-3.3 1.2-6.4 2.8-9.4 4.6-1.9 1.1-3.9 2-5.7 3.4-.3.2-.6.4-.8.7-2.2 1.7-4.4 3.5-6.5 5.4-4.2 3.7-7.9 7.8-11.6 12C120.9 122.1 117.8 125.8 114.6 129.4zm115 113.9c-.1.1-.2.3-.3.4-.4.5-.9 1-1.3 1.5L229.6 243.3z"/></svg>